<?xml version="1.0" standalone="no"?>
<!DOCTYPE svg PUBLIC "-//W3C//DTD SVG 20010904//EN"
 "http://www.w3.org/TR/2001/REC-SVG-20010904/DTD/svg10.dtd">
<svg version="1.0" xmlns="http://www.w3.org/2000/svg"
 width="700.000000pt" height="700.000000pt" viewBox="0 0 700.000000 700.000000"
 preserveAspectRatio="xMidYMid meet">
<metadata>
Created by potrace 1.14, written by Peter Selinger 2001-2017
</metadata>
<g transform="translate(0.000000,700.000000) scale(0.100000,-0.100000)"
fill="#000000" stroke="none">
<path d="M2800 5750 l0 -50 -150 0 -150 0 0 -50 0 -50 -100 0 -100 0 0 -50 0
-50 -100 0 -100 0 0 -50 0 -50 -100 0 -100 0 0 50 0 50 -50 0 -50 0 0 50 0 50
-300 0 -300 0 0 -50 0 -50 -50 0 -50 0 0 -50 0 -50 -50 0 -50 0 0 -50 0 -50
-50 0 -50 0 0 -100 0 -100 -50 0 -50 0 0 -100 0 -100 -50 0 -50 0 0 -100 0
-100 -50 0 -50 0 0 -50 0 -50 -200 0 -200 0 0 50 0 50 -50 0 -50 0 0 -50 0
-50 50 0 50 0 0 -50 0 -50 50 0 50 0 0 -50 0 -50 50 0 50 0 0 -50 0 -50 100 0
100 0 0 -200 0 -200 50 0 50 0 0 -50 0 -50 50 0 50 0 0 -50 0 -50 50 0 50 0 0
-50 0 -50 100 0 100 0 0 -50 0 -50 50 0 50 0 0 -50 0 -50 50 0 50 0 0 -50 0
-50 50 0 50 0 0 50 0 50 50 0 50 0 0 -250 0 -250 50 0 50 0 0 -300 0 -300
-200 0 -200 0 0 -50 0 -50 -150 0 -150 0 0 -50 0 -50 -200 0 -200 0 0 50 0 50
-50 0 -50 0 0 -50 0 -50 50 0 50 0 0 -50 0 -50 50 0 50 0 0 -50 0 -50 50 0 50
0 0 -50 0 -50 200 0 200 0 0 -100 0 -100 -50 0 -50 0 0 -50 0 -50 50 0 50 0 0
50 0 50 150 0 150 0 0 50 0 50 50 0 50 0 0 -50 0 -50 50 0 50 0 0 -50 0 -50
50 0 50 0 0 -50 0 -50 50 0 50 0 0 -100 0 -100 -50 0 -50 0 0 -50 0 -50 -50 0
-50 0 0 -50 0 -50 -50 0 -50 0 0 -50 0 -50 -150 0 -150 0 0 50 0 50 -50 0 -50
0 0 -50 0 -50 50 0 50 0 0 -100 0 -100 50 0 50 0 0 -50 0 -50 2200 0 2200 0 0
50 0 50 50 0 50 0 0 100 0 100 50 0 50 0 0 50 0 50 -50 0 -50 0 0 -50 0 -50
-150 0 -150 0 0 50 0 50 -50 0 -50 0 0 100 0 100 -50 0 -50 0 0 50 0 50 100 0
100 0 0 50 0 50 50 0 50 0 0 100 0 100 200 0 200 0 0 -50 0 -50 50 0 50 0 0
50 0 50 -50 0 -50 0 0 100 0 100 200 0 200 0 0 50 0 50 50 0 50 0 0 50 0 50
50 0 50 0 0 50 0 50 50 0 50 0 0 50 0 50 -50 0 -50 0 0 -50 0 -50 -200 0 -200
0 0 50 0 50 -150 0 -150 0 0 50 0 50 -100 0 -100 0 0 50 0 50 -50 0 -50 0 0
250 0 250 -50 0 -50 0 0 150 0 150 50 0 50 0 0 50 0 50 50 0 50 0 0 50 0 50
50 0 50 0 0 100 0 100 100 0 100 0 0 50 0 50 100 0 100 0 0 50 0 50 50 0 50 0
0 200 0 200 50 0 50 0 0 50 0 50 100 0 100 0 0 50 0 50 50 0 50 0 0 100 0 100
50 0 50 0 0 50 0 50 -50 0 -50 0 0 -50 0 -50 -200 0 -200 0 0 50 0 50 -50 0
-50 0 0 100 0 100 -50 0 -50 0 0 100 0 100 -50 0 -50 0 0 100 0 100 -50 0 -50
0 0 50 0 50 -50 0 -50 0 0 50 0 50 -50 0 -50 0 0 50 0 50 -300 0 -300 0 0 -50
0 -50 -50 0 -50 0 0 -50 0 -50 -50 0 -50 0 0 50 0 50 -100 0 -100 0 0 50 0 50
-100 0 -100 0 0 50 0 50 -150 0 -150 0 0 50 0 50 -700 0 -700 0 0 -50z m-400
-1100 l0 -50 -50 0 -50 0 0 50 0 50 50 0 50 0 0 -50z m2100 0 l0 -50 -50 0
-50 0 0 50 0 50 50 0 50 0 0 -50z m-900 -100 l0 -50 -50 0 -50 0 0 50 0 50 50
0 50 0 0 -50z m-2600 -600 l0 -250 -50 0 -50 0 0 250 0 250 50 0 50 0 0 -250z
m5000 0 l0 -250 -50 0 -50 0 0 250 0 250 50 0 50 0 0 -250z m-3400 -150 l0
-100 -50 0 -50 0 0 100 0 100 50 0 50 0 0 -100z m400 -50 l0 -150 50 0 50 0 0
-50 0 -50 50 0 50 0 0 -50 0 -50 50 0 50 0 0 -50 0 -50 50 0 50 0 0 100 0 100
50 0 50 0 0 -50 0 -50 50 0 50 0 0 -50 0 -50 100 0 100 0 0 -200 0 -200 50 0
50 0 0 -50 0 -50 50 0 50 0 0 -50 0 -50 250 0 250 0 0 -100 0 -100 -50 0 -50
0 0 -50 0 -50 -150 0 -150 0 0 -50 0 -50 -150 0 -150 0 0 -50 0 -50 -50 0 -50
0 0 -50 0 -50 -50 0 -50 0 0 50 0 50 -100 0 -100 0 0 -50 0 -50 -50 0 -50 0 0
50 0 50 -50 0 -50 0 0 50 0 50 -150 0 -150 0 0 50 0 50 -150 0 -150 0 0 -50 0
-50 -50 0 -50 0 0 50 0 50 -50 0 -50 0 0 100 0 100 -50 0 -50 0 0 100 0 100
50 0 50 0 0 -50 0 -50 50 0 50 0 0 100 0 100 50 0 50 0 0 100 0 100 100 0 100
0 0 -50 0 -50 50 0 50 0 0 50 0 50 100 0 100 0 0 -100 0 -100 50 0 50 0 0
-100 0 -100 50 0 50 0 0 150 0 150 -50 0 -50 0 0 200 0 200 -50 0 -50 0 0 50
0 50 -100 0 -100 0 0 200 0 200 50 0 50 0 0 -150z m1200 0 l0 -50 50 0 50 0 0
-50 0 -50 50 0 50 0 0 -50 0 -50 -150 0 -150 0 0 150 0 150 50 0 50 0 0 -50z
m-2800 -200 l0 -150 -50 0 -50 0 0 150 0 150 50 0 50 0 0 -150z m1300 0 l0
-50 -100 0 -100 0 0 50 0 50 100 0 100 0 0 -50z m1200 -100 l0 -50 -50 0 -50
0 0 50 0 50 50 0 50 0 0 -50z m-1000 -100 l0 -50 50 0 50 0 0 -50 0 -50 -150
0 -150 0 0 50 0 50 50 0 50 0 0 50 0 50 50 0 50 0 0 -50z m1300 0 l0 -50 50 0
50 0 0 -50 0 -50 -50 0 -50 0 0 -50 0 -50 -50 0 -50 0 0 50 0 50 -50 0 -50 0
0 50 0 50 50 0 50 0 0 50 0 50 50 0 50 0 0 -50z m1100 0 l0 -50 50 0 50 0 0
-200 0 -200 -50 0 -50 0 0 -50 0 -50 -50 0 -50 0 0 200 0 200 50 0 50 0 0 50
0 50 -50 0 -50 0 0 50 0 50 50 0 50 0 0 -50z m-2800 -250 l0 -100 -50 0 -50 0
0 100 0 100 50 0 50 0 0 -100z m2100 0 l0 -100 -50 0 -50 0 0 100 0 100 50 0
50 0 0 -100z m-2900 -100 l0 -100 50 0 50 0 0 -50 0 -50 -50 0 -50 0 0 50 0
50 -50 0 -50 0 0 100 0 100 50 0 50 0 0 -100z m3600 -400 l0 -100 50 0 50 0 0
-50 0 -50 100 0 100 0 0 -50 0 -50 -50 0 -50 0 0 -50 0 -50 -150 0 -150 0 0
250 0 250 50 0 50 0 0 -100z m-3400 -300 l0 -100 -150 0 -150 0 0 50 0 50 100
0 100 0 0 50 0 50 50 0 50 0 0 -100z m700 -150 l0 -50 -50 0 -50 0 0 50 0 50
50 0 50 0 0 -50z m0 -250 l0 -100 -50 0 -50 0 0 100 0 100 50 0 50 0 0 -100z
m-1000 -150 l0 -50 100 0 100 0 0 -50 0 -50 -100 0 -100 0 0 50 0 50 -50 0
-50 0 0 50 0 50 50 0 50 0 0 -50z m4000 -50 l0 -100 -150 0 -150 0 0 50 0 50
100 0 100 0 0 50 0 50 50 0 50 0 0 -100z"/>
<path d="M3400 3250 l0 -50 50 0 50 0 0 50 0 50 -50 0 -50 0 0 -50z"/>
<path d="M2600 2850 l0 -50 50 0 50 0 0 -50 0 -50 150 0 150 0 0 50 0 50 50 0
50 0 0 50 0 50 -50 0 -50 0 0 -50 0 -50 -150 0 -150 0 0 50 0 50 -50 0 -50 0
0 -50z"/>
<path d="M2500 2650 l0 -50 50 0 50 0 0 -50 0 -50 250 0 250 0 0 50 0 50 50 0
50 0 0 50 0 50 -50 0 -50 0 0 -50 0 -50 -250 0 -250 0 0 50 0 50 -50 0 -50 0
0 -50z"/>
</g>
</svg>
